<svg xmlns="http://www.w3.org/2000/svg" enable-background="new 0 0 5000 4000" viewBox="0 0 5000 4000"><path fill="#fff" d="M1919.668,1698.461c185.548-31.413,275.67,122.66,300.182,214.131
							c24.512,91.472,264.672,987.669,264.672,987.669c75.504,254.42-387.067,348.472-462.813,121.335
							c0,0-229.146-816.339-263.662-986.114C1723.53,1865.708,1734.12,1729.874,1919.668,1698.461z"/><path fill="#212121" d="M2233.524,3156.51c-30.406,0-60.121-4.164-87.302-12.524
							c-31.071-9.558-57.852-24.158-79.596-43.396c-23.627-20.903-40.715-46.821-50.791-77.036
							c-0.031-0.094-0.061-0.189-0.088-0.285c-2.291-8.165-229.602-818.501-263.768-986.553
							c-25.581-125.825-19.924-206.814,18.346-262.602c29.585-43.127,78.097-69.87,148.309-81.757l1.033,6.104l-1.033-6.104
							c187.732-31.779,281.426,122.475,307.194,218.633l264.65,987.587c16.783,56.623,8.554,110.073-23.799,154.586
							c-28.235,38.849-74.606,69.953-130.571,87.583C2302.801,3151.24,2267.725,3156.509,2233.524,3156.51z M2027.629,3019.78
							c23.033,68.883,79.176,99.126,122.234,112.37c55.411,17.046,121.939,15.873,182.525-3.213
							c90.085-28.38,182.428-104.837,146.198-226.915c-0.016-0.053-0.031-0.106-0.045-0.159l-264.672-987.668
							c-24.686-92.115-114.202-239.929-293.169-209.63c-66.729,11.297-112.578,36.338-140.165,76.553
							c-36.216,52.794-41.281,130.863-16.423,253.131C1798.049,2201.166,2023.496,3005.05,2027.629,3019.78z"/><path fill="#fff" d="M2265.32,1933.169l99.39,340.802l50.603,173.111l-563.719,155.038l-47.626-160.512
								l-98.321-331.794c-27.661-85.657-52.245-337.514,165.175-419.493C2088.169,1608.2,2232.417,1820.332,2265.32,1933.169z"/><path fill="#212121" d="M1851.592,2608.312c-2.675,0-5.135-1.746-5.932-4.432l-47.625-160.512l-98.301-331.724
								c-15.202-47.122-26.794-131.467-9.463-214.226c9.908-47.312,28.146-88.617,54.208-122.769
								c30.789-40.346,72.562-70.667,124.159-90.122c73.357-27.716,144.244-24.954,210.695,8.211
								c46.513,23.213,90.366,61.718,126.819,111.354c29.486,40.148,53.219,86.567,65.11,127.343l99.39,340.802l50.603,173.106
								c0.465,1.593,0.271,3.306-0.536,4.754c-0.809,1.449-2.165,2.513-3.765,2.952l-563.719,155.038
								C1852.688,2608.239,1852.135,2608.312,1851.592,2608.312z M1966.991,1678.04c-30.701,0-62.087,6.021-93.979,18.072
								c-92.169,34.753-149.573,103.336-170.622,203.845c-16.842,80.424-5.597,162.288,9.15,207.954
								c0.015,0.048,0.029,0.096,0.044,0.144l98.321,331.794l45.898,154.692l551.803-151.761l-48.839-167.072l-99.391-340.806
								c0,0,0,0,0,0c-22.759-78.049-90.538-183.655-185.572-231.084C2039.38,1686.636,2003.674,1678.04,1966.991,1678.04z"/><polygon fill="#fff" points="2364.71 2273.971 2415.314 2447.081 1851.595 2602.119 1803.969 2441.607"/><path fill="#212121" d="M1851.592,2608.312c-2.675,0-5.135-1.746-5.932-4.432l-47.625-160.512
								c-0.972-3.272,0.891-6.714,4.161-7.692l560.74-167.637c1.579-0.469,3.282-0.295,4.73,0.493
								c1.448,0.787,2.522,2.119,2.985,3.701l50.604,173.11c0.465,1.593,0.272,3.306-0.536,4.754
								c-0.809,1.449-2.165,2.513-3.765,2.952l-563.719,155.038C1852.688,2608.239,1852.135,2608.312,1851.592,2608.312z
								 M1811.662,2445.77l44.142,148.771l551.803-151.761l-47.091-161.094L1811.662,2445.77z"/><path fill="#fff" d="M2382.59,2707.705c86.273,30.198,371.999,131.016,581.795,214.468
							c172.859,68.759,210.641,292.966,122.458,405.292c-88.183,112.326-238.533,131.462-345.423,81.92
							c-150.484-69.747-500.699-221.1-569.379-253.599c-56.599-26.783-120.457-63.615-144.938-120.042"/><path fill="#212121" d="M2861.1,3441.377c-42.644,0.001-84.636-8.927-122.283-26.375
							c-83.341-38.628-226.171-101.503-352.187-156.978c-100.096-44.063-186.542-82.118-217.236-96.644
							c-55.382-26.207-122.25-63.891-147.972-123.174c-1.36-3.137,0.079-6.782,3.216-8.144c3.14-1.358,6.783,0.08,8.143,3.216
							c24.079,55.497,88.487,91.631,141.908,116.91c30.543,14.453,116.917,52.476,216.93,96.503
							c126.067,55.497,268.955,118.398,352.405,157.075c35.023,16.233,75.924,25.253,118.124,25.254
							c78.55,0.002,161.625-31.243,219.827-105.379c42.771-54.481,55.985-137.871,34.484-217.627
							c-22.392-83.064-78.654-147.976-154.361-178.091c-210.213-83.616-498.273-185.227-581.553-214.377
							c-3.228-1.129-4.928-4.661-3.798-7.888c1.129-3.228,4.658-4.931,7.888-3.798c83.338,29.17,371.603,130.853,582.039,214.559
							c41.547,16.526,77.061,42.318,105.555,76.66c25.786,31.077,45.215,69.016,56.186,109.712
							c22.496,83.45,8.434,171.004-36.701,228.495c-42.427,54.042-100.979,89.972-169.329,103.903
							C2902.083,3439.329,2881.513,3441.376,2861.1,3441.377z"/><path fill="#fff" d="M2900.793,2921.156c233.615,6.245,543.067,116.721,645.263,442.682
								c11.693,56.611-18.326,113.502-71.676,135.758c-82.679,34.49-239.307,84.666-343.862,121.034
								c-57.624,20.044-120.073-6.706-147.807-61.049c-98.467-192.935-229.091-20.654-371.464-217.121
								c-4.872-6.722-9.52-13.55-13.929-20.468"/><path fill="#212121" d="M3091.419,3633.433c-16.461,0-32.904-3.249-48.399-9.72
								c-28.297-11.816-51.674-33.593-65.823-61.317c-47.704-93.471-101.784-98.301-164.403-103.893
								c-62.695-5.6-133.756-11.945-206.559-112.409c-4.945-6.823-9.701-13.812-14.137-20.775c-1.838-2.883-0.989-6.71,1.895-8.547
								c2.88-1.84,6.709-0.989,8.547,1.895c4.304,6.755,8.92,13.538,13.721,20.162c69.494,95.898,134.637,101.716,197.635,107.342
								c63.519,5.673,123.516,11.031,174.33,110.597c26.822,52.556,85.809,76.956,140.259,58.017
								c30.227-10.515,64.435-22.058,100.649-34.277c86.371-29.146,184.266-62.179,242.863-86.624
								c50.37-21.013,78.953-75.016,68.059-128.491c-98.29-312.998-394.725-431.505-639.427-438.047
								c-3.418-0.091-6.115-2.937-6.023-6.354c0.091-3.418,2.95-6.124,6.354-6.023c134.078,3.584,267.203,39.908,374.852,102.279
								c63.798,36.964,118.945,82.995,163.913,136.816c49.975,59.814,87.737,129.77,112.24,207.923
								c0.062,0.198,0.114,0.397,0.155,0.601c12.263,59.369-19.429,119.393-75.354,142.724
								c-58.997,24.611-157.109,57.718-243.672,86.928c-36.188,12.211-70.368,23.744-100.54,34.239
								C3119.204,3631.12,3105.306,3633.433,3091.419,3633.433z"/><path fill="#fff" d="M3201.269,3552.221c0,0-18.653-194.862-196.527-305.783"/><path fill="#212121" d="M3201.262,3558.412c-3.153,0-5.849-2.398-6.155-5.602
									c-0.064-0.649-5.003-48.92-31.266-109.858c-24.2-56.15-72.015-134.912-162.375-191.261
									c-2.901-1.809-3.787-5.628-1.978-8.528c1.811-2.901,5.631-3.786,8.528-1.978c41.179,25.679,77.29,57.974,107.33,95.988
									c24.014,30.389,44.217,64.473,60.049,101.307c26.97,62.749,31.842,111.122,32.035,113.15
									c0.326,3.403-2.169,6.427-5.572,6.752C3201.658,3558.402,3201.459,3558.412,3201.262,3558.412z"/><path fill="#fff" d="M3403.3,3481.688c0,0-17.543-196.823-184.757-319.403"/><path fill="#212121" d="M3403.294,3487.879c-3.17,0-5.871-2.422-6.159-5.64l0,0
									c-0.044-0.486-4.663-49.386-29.427-112.422c-22.78-57.989-67.785-140.2-152.825-202.539
									c-2.758-2.021-3.354-5.896-1.333-8.653c2.021-2.759,5.894-3.354,8.653-1.333c38.683,28.357,72.601,63.026,100.812,103.046
									c22.546,31.981,41.514,67.429,56.377,105.356c25.32,64.611,29.894,113.398,30.075,115.443
									c0.304,3.405-2.211,6.412-5.616,6.716C3403.663,3487.87,3403.478,3487.879,3403.294,3487.879z"/><g><path fill="#fff" d="M1287.798,1586.16h284.303c88.315,0,165.267,10.96,233.167,30.901
						c220.664,64.803,368.835,271.962,366.751,501.935l-10.301,1137.027c0,320.248-1435.395,294.513-1435.395,0l-41.384-1043.311
						c-13.427-338.494,254.604-623.396,593.35-626.508C1281.444,1586.174,1284.613,1586.16,1287.798,1586.16z"/><path fill="#212121" d="M1466.52,3492.85c-188.782,0-374.336-21.566-509.084-59.17
						c-155.15-43.298-237.204-104.688-237.304-177.529l-41.379-1043.194c-3.331-83.973,10.208-166.007,40.24-243.822
						c28.996-75.129,71.946-142.885,127.657-201.385c55.231-57.997,120.06-103.779,192.682-136.075
						c75.369-33.517,155.747-50.898,238.9-51.663c3.173-0.029,6.362-0.043,9.565-0.043h284.303
						c85.49,0,164.525,10.48,234.911,31.151c54.791,16.091,106.116,41.1,152.55,74.332c45.123,32.295,84.697,71.659,117.621,116.999
						c32.782,45.144,58.128,95.042,75.332,148.307c17.568,54.392,26.213,111.014,25.694,168.293l-10.301,1137.027
						c0,39.594-20.745,75.623-61.658,107.032c-36.994,28.4-90.387,52.948-158.692,72.963
						C1822.603,3472.687,1651.767,3492.85,1466.52,3492.85z M1287.798,1592.351c-3.166,0-6.316,0.014-9.452,0.043
						c-161.078,1.48-311.206,66.789-422.729,183.895c-112.544,118.178-170.961,273.083-164.492,436.178l41.384,1043.311
						c0.004,0.081,0.005,0.163,0.005,0.245c0,33.937,20.702,65.695,61.53,94.395c38.839,27.302,94.932,51.303,166.721,71.337
						c133.71,37.313,318.051,58.715,505.756,58.715c184.102,0,353.701-19.986,477.557-56.277
						c96.463-28.265,211.451-80.384,211.451-168.169l10.301-1137.083c2.072-228.746-146.912-432.683-362.305-495.938
						c-69.252-20.338-147.114-30.65-231.423-30.65H1287.798z"/><path fill="#fff" d="M1811.542,1609.121c-2.58,37.14,43.465,156.389-214.154,187.034
							c-257.619,30.645-319.608-103.189-324.131-213.182c-254.685,0-607.146,177.959-607.146,477.512l24.063,1596.649h1555.144
							c12.013-14.091,18.543-29.501,18.77-46.328l-37.498-1664.465C2222.527,1778.127,2082.683,1638.933,1811.542,1609.121z"/><path fill="#212121" d="M2245.319,3663.324H690.175c-3.383,0-6.139-2.715-6.189-6.097l-24.064-1596.649
							c0-72.402,20.188-141.133,60.003-204.377c35.866-56.971,86.59-108.083,150.762-151.917
							c58.216-39.764,126.83-72.524,198.426-94.738c69.086-21.435,139.679-32.765,204.146-32.765c3.32,0,6.049,2.619,6.186,5.937
							c1.936,47.083,15.421,112.73,68.671,158.099c41.851,35.657,101.73,53.594,178.526,53.596c21.966,0,45.307-1.466,70.017-4.406
							c219.468-26.107,212.878-115.121,209.338-162.943c-0.527-7.125-0.983-13.277-0.629-18.373
							c0.117-1.681,0.914-3.241,2.207-4.322c1.292-1.081,2.961-1.59,4.646-1.403c66.532,7.315,127.17,21.444,180.227,41.994
							c50.879,19.706,94.889,45.334,130.808,76.173c69.538,59.704,107.412,137.527,109.525,225.058l37.5,1664.475
							c0.001,0.074,0.002,0.148,0.001,0.223c-0.241,17.873-7.054,34.783-20.249,50.262
							C2248.854,3662.529,2247.133,3663.324,2245.319,3663.324z M696.273,3650.943h1546.132
							c10.067-12.574,15.276-26.053,15.492-40.108L2220.4,1946.48c-4.234-175.355-158.33-301.559-402.703-330.427
							c0.121,3.018,0.373,6.418,0.646,10.097c1.832,24.75,4.601,62.151-22.856,97.058c-14.904,18.948-37.282,34.963-66.513,47.598
							c-33.736,14.584-77.762,25.181-130.854,31.496c-114.666,13.638-201.48-3.875-258.036-52.061
							c-54.413-46.36-69.775-112.027-72.711-161.048c-131.267,1.36-276.496,47.987-389.703,125.314
							c-132.434,90.46-205.368,213.331-205.368,345.977L696.273,3650.943z"/><path fill="#212121" d="M1863.085,1620.863c-0.224-4.456-3.306-8.379-7.571-9.689
								c-24.323-7.467-49.969-13.878-77.064-19.051c-7.573-1.446-14.329,5.646-12.187,13.052c2.208,7.633,3.128,12.447,3.128,20.468
								c0,74.987-61.696,135.889-185.53,135.889c-123.995,0-263.313-60.902-263.313-135.889c0-12.344,2.755-24.285,7.866-35.636
								c3.303-7.337-1.706-15.623-9.749-15.369c-21.365,0.674-56.22,1.95-78.238,3.68c-4.637,0.364-8.563,3.643-9.561,8.186
								c-2.78,12.663-4.251,25.726-4.251,39.14c0,128.317,168.43,225.694,345.808,229.68l41.419,359.599
								c1.305,11.333,11.551,19.462,22.884,18.157c57.383-6.609,98.544-58.486,91.934-115.869l-32.007-277.891
								c72.253-23.555,117.802-71.309,147.874-132.764C1855.948,1683.211,1864.891,1656.72,1863.085,1620.863z"/><circle cx="1642.84" cy="1919.416" r="32.438" fill="#fff"/><circle cx="1658.398" cy="2054.491" r="32.438" fill="#fff"/></g><g><polyline fill="#fff" points="1675.279 1675.536 1713.794 1458.633 1434.227 1408.99 1397.022 1618.509"/><path fill="#212121" d="M1675.285,1681.728c-0.359,0-0.723-0.032-1.089-0.097c-3.366-0.598-5.611-3.811-5.014-7.178
						l37.434-210.808l-267.377-47.479l-36.122,203.425c-0.599,3.366-3.811,5.607-7.178,5.013c-3.366-0.598-5.611-3.811-5.014-7.178
						l37.205-209.52c0.598-3.366,3.81-5.612,7.178-5.013l279.567,49.644c3.367,0.598,5.611,3.811,5.014,7.178l-38.516,216.903
						C1680.841,1679.619,1678.23,1681.728,1675.285,1681.728z"/><path fill="#212121" d="M2130.247,775.208l-23.044-15.611c-26.036-17.637-36.985-50.559-26.698-80.277l7.156-20.672
					c12.502-36.117-18.444-72.358-56.073-65.669l-30.487,5.42c-34.557,6.143-68.272-14.443-78.594-47.99l-7.324-23.804
					c-10.284-33.422-50.793-46.274-78.463-24.892l-14.081,10.88c-31.157,24.076-76.074,17.486-99.001-14.526l-21.009-29.333
					c-19.787-27.628-60.764-27.935-80.963-0.607l-29.295,39.634c-17.384,23.52-47.632,33.64-75.67,25.317l-78.057-14.834
					c-34.453-6.548-67.205,17.573-71.175,52.417l-6.255,54.905c0,31.574-21.283,59.181-51.819,67.215
					c-1.625,0.427-3.46,1.081-5.461,1.919c-38.683,16.209-57.442,60.404-44.286,100.229l31.363,121.119
					c0,0-10.563,163.538-8.455,190.957c9.199,119.673,94.976,224.562,218.161,252.508l169.397,38.431
					c151.408,34.35,301.995-60.545,336.345-211.953l53.173-209.054c1.781-7.85,4.287-23.443,4.287-23.443l71.467-99.379
					C2159.831,832.437,2157.297,793.532,2130.247,775.208z"/><path fill="#fff" d="M1484.474,1454.5c86.297,37.962,180.254,59.028,270.23,62.732
						c110.783,4.561,208.916-70.984,233.447-179.113l70.965-312.798c28.128-123.982-49.577-247.292-173.559-275.419l-185.527-42.091
						c-123.982-28.128-247.292,49.577-275.419,173.559l-70.781,311.986C1329.541,1300.417,1383.985,1410.295,1484.474,1454.5z"/><path fill="#212121" d="M1764.227,1523.619c-3.252,0-6.502-0.066-9.777-0.201
						c-92.877-3.824-187.095-25.696-272.469-63.251c-102.754-45.201-159.188-157.988-134.188-268.181L1418.573,880
						c13.97-61.576,51.082-114.026,104.501-147.688c53.418-33.663,116.747-44.509,178.325-30.538l185.527,42.091
						c61.575,13.97,114.026,51.082,147.688,104.501c33.663,53.419,44.508,116.75,30.538,178.325l-70.965,312.798
						C1969.675,1447.54,1873.854,1523.619,1764.227,1523.619z M1486.967,1448.833c83.973,36.939,176.644,58.452,267.992,62.213
						c107.705,4.435,203.234-68.869,227.155-174.297l70.965-312.798c13.238-58.351,2.961-118.364-28.938-168.985
						s-81.603-85.79-139.954-99.028l-185.527-42.091c-58.35-13.237-118.362-2.961-168.984,28.939
						c-50.62,31.899-85.789,81.602-99.027,139.953l-70.78,311.986C1336.176,1299.147,1389.629,1406.015,1486.967,1448.833z"/><path fill="#fff" d="M1379.687,1149.652l-77.491-18.375c-60.3-13.68-98.104-73.671-84.424-133.972
							c13.681-60.301,73.664-98.074,133.965-84.393l77.491,18.375"/><path fill="#212121" d="M1379.692,1155.843c-0.473,0-0.953-0.054-1.434-0.168l-77.491-18.374
							c-30.718-6.969-56.936-25.521-73.764-52.227c-16.829-26.705-22.251-58.362-15.269-89.138
							c14.411-63.524,77.828-103.477,141.372-89.061l77.549,18.389c3.326,0.789,5.384,4.125,4.595,7.452s-4.121,5.384-7.452,4.596
							l-77.49-18.375c-56.83-12.896-113.599,22.875-126.499,79.739c-6.251,27.551-1.396,55.891,13.669,79.798
							s38.536,40.516,66.088,46.767l77.55,18.388c3.326,0.789,5.384,4.125,4.595,7.452
							C1385.036,1153.926,1382.496,1155.843,1379.692,1155.843z"/><path fill="#212121" d="M1323.921,1086.932c-0.454,0-0.914-0.05-1.376-0.155l-9.751-2.212
							c-34.455-7.816-56.126-42.207-48.31-76.662c3.779-16.659,13.843-30.86,28.336-39.988c14.493-9.127,31.652-12.072,48.319-8.291
							c0.001,0,0.002,0,0.003,0l9.748,2.212c3.334,0.756,5.424,4.073,4.667,7.407c-0.756,3.335-4.069,5.425-7.407,4.667
							l-9.747-2.211c-0.001,0-0.003,0-0.004-0.001c-13.44-3.047-27.284-0.672-38.98,6.693c-11.694,7.365-19.812,18.818-22.86,32.251
							c-6.306,27.797,11.178,55.542,38.976,61.848l9.751,2.212c3.334,0.756,5.424,4.073,4.667,7.407
							C1329.301,1084.983,1326.748,1086.932,1323.921,1086.932z"/><g><circle cx="1913.282" cy="1112.802" r="43.201" fill="#212121"/><circle cx="1654.457" cy="1054.083" r="43.201" fill="#212121"/><line x1="1591.678" x2="1603.099" y1="1118.996" y2="1166.57" fill="#fff"/><path fill="#212121" d="M1603.094,1172.761c-2.797,0-5.333-1.908-6.015-4.747l-11.421-47.573
									c-0.798-3.325,1.25-6.667,4.574-7.465c3.32-0.801,6.666,1.25,7.465,4.574l11.421,47.573c0.798,3.325-1.25,6.667-4.574,7.465
									C1604.059,1172.706,1603.572,1172.761,1603.094,1172.761z"/><line x1="1565.248" x2="1576.669" y1="1113" y2="1160.573" fill="#fff"/><path fill="#212121" d="M1576.664,1166.765c-2.797,0-5.333-1.908-6.015-4.747l-11.421-47.573
									c-0.798-3.325,1.25-6.667,4.574-7.465c3.319-0.801,6.666,1.25,7.465,4.574l11.421,47.573
									c0.798,3.325-1.25,6.667-4.574,7.465C1577.629,1166.709,1577.143,1166.765,1576.664,1166.765z"/><line x1="1538.818" x2="1550.239" y1="1107.004" y2="1154.577" fill="#fff"/><path fill="#212121" d="M1550.234,1160.769c-2.797,0-5.333-1.908-6.015-4.747l-11.421-47.573
									c-0.798-3.325,1.25-6.667,4.574-7.465c3.319-0.801,6.667,1.25,7.465,4.574l11.421,47.573
									c0.798,3.325-1.25,6.667-4.574,7.465C1551.199,1160.713,1550.713,1160.769,1550.234,1160.769z"/><line x1="1927.022" x2="1896.19" y1="1195.076" y2="1233.063" fill="#fff"/><path fill="#212121" d="M1896.186,1239.254c-1.371,0-2.75-0.453-3.897-1.384c-2.654-2.155-3.06-6.053-0.905-8.708
									l30.832-37.987c2.155-2.655,6.054-3.06,8.708-0.905c2.654,2.155,3.06,6.053,0.905,8.708l-30.832,37.987
									C1899.772,1238.472,1897.986,1239.254,1896.186,1239.254z"/><line x1="1953.452" x2="1922.62" y1="1201.072" y2="1239.059" fill="#fff"/><path fill="#212121" d="M1922.615,1245.25c-1.371,0-2.75-0.453-3.897-1.384c-2.654-2.155-3.06-6.053-0.905-8.708
									l30.832-37.987c2.155-2.655,6.054-3.06,8.708-0.905c2.654,2.155,3.06,6.053,0.905,8.708l-30.832,37.987
									C1926.202,1244.468,1924.416,1245.25,1922.615,1245.25z"/><line x1="1979.881" x2="1949.049" y1="1207.068" y2="1245.056" fill="#fff"/><path fill="#212121" d="M1949.045,1251.247c-1.371,0-2.75-0.453-3.897-1.384c-2.654-2.155-3.06-6.053-0.905-8.708
									l30.832-37.987c2.155-2.655,6.053-3.06,8.708-0.905c2.654,2.155,3.06,6.053,0.905,8.708l-30.832,37.987
									C1952.632,1250.464,1950.846,1251.247,1949.045,1251.247z"/><g><path fill="#212121" d="M1599.487,960.276l128.463,29.145c15.83,3.591,31.574-6.33,35.165-22.16
							c3.591-15.83-6.33-31.574-22.16-35.165l-128.463-29.145c-15.83-3.591-31.574,6.33-35.165,22.16
							S1583.657,956.685,1599.487,960.276z"/><path fill="#212121" d="M1876.097,1023.031l128.463,29.144c15.83,3.591,31.574-6.33,35.165-22.16
							c3.591-15.83-6.33-31.574-22.16-35.165l-128.463-29.145c-15.83-3.591-31.574,6.33-35.165,22.16
							C1850.346,1003.695,1860.267,1019.439,1876.097,1023.031z"/></g><g><path fill="#fff" d="M1792.552,1099.21c0,0,10.094,72.732-6.734,146.906l-53.526-12.144"/><path fill="#212121" d="M1785.824,1252.309c-0.454,0-0.914-0.05-1.376-0.155l-53.526-12.144
							c-3.334-0.756-5.424-4.072-4.667-7.407c0.756-3.334,4.073-5.428,7.407-4.667l47.432,10.761
							c14.524-70.055,5.423-137.94,5.327-138.637c-0.469-3.386,1.896-6.512,5.282-6.981c3.398-0.469,6.513,1.895,6.981,5.28
							c0.419,3.016,10.055,74.707-6.829,149.127C1791.204,1250.359,1788.651,1252.309,1785.824,1252.309z"/></g><g><path fill="#fff" d="M1776.12,1339.67c-19.023-2.332-42.672-6.931-68.776-16.148
							c-30.294-10.696-54.348-24.24-71.915-35.923"/><path fill="#212121" d="M1776.128,1345.862c-0.251,0-0.505-0.015-0.761-0.047
							c-23.867-2.926-47.447-8.462-70.085-16.455c-25.801-9.109-50.456-21.425-73.282-36.605c-2.847-1.894-3.619-5.736-1.727-8.583
							c1.894-2.848,5.734-3.622,8.584-1.727c21.975,14.614,45.71,26.471,70.548,35.24c21.791,7.694,44.491,13.024,67.468,15.841
							c3.394,0.416,5.808,3.504,5.392,6.898C1781.88,1343.562,1779.211,1345.862,1776.128,1345.862z"/></g></g></g><g><path fill="#fff" d="M1204.297,2103.614c-20.416,1.557-40.836,3.063-61.259,4.527
							c-42.33,3.035-84.671,5.904-127.014,8.737c-41.23,2.758-82.351,5.824-123.438,10.287
							c-40.953,4.449-81.851,9.45-122.891,13.062c-14.408,1.268-28.838,2.358-43.282,3.193l43.187,780.824
							c13.12,189.035,92.381,259.585,220.743,256.42s268.652-88.057,255.734-307.217L1204.297,2103.614z"/><path fill="#212121" d="M982.076,3186.958c-64.876,0-113.961-19.093-149.882-58.243
							c-39.753-43.326-62.248-110.068-68.77-204.042l-43.193-780.911c-0.188-3.408,2.417-6.326,5.825-6.522
							c13.649-0.788,27.746-1.828,43.096-3.179c29.286-2.578,59.025-5.924,87.785-9.16c11.462-1.29,23.313-2.623,34.979-3.89
							c42.834-4.653,84.764-7.705,123.693-10.31c40.095-2.683,83.229-5.598,126.985-8.735c21.063-1.51,41.665-3.033,61.23-4.526
							c1.666-0.126,3.304,0.421,4.554,1.52c1.252,1.098,2.009,2.655,2.099,4.318l41.78,769.834
							c2.968,50.341-1.993,96.178-14.747,136.206c-11.69,36.695-29.961,68.72-54.303,95.185
							c-24.499,26.636-54.737,47.334-89.873,61.52c-31.573,12.747-67.135,19.95-102.84,20.83
							C987.664,3186.923,984.852,3186.958,982.076,3186.958z M732.935,2149.23l42.848,774.672
							c11.851,170.756,77.542,250.672,206.469,250.672c2.625,0,5.262-0.033,7.94-0.099c73.792-1.82,139.104-29.646,183.904-78.354
							c49.204-53.496,71.343-128.292,65.802-222.31l-41.439-763.546c-17.684,1.34-36.146,2.7-54.978,4.05
							c-43.78,3.139-86.934,6.055-127.044,8.739c-38.797,2.596-80.572,5.637-123.182,10.265
							c-11.644,1.265-23.483,2.597-34.933,3.885c-28.834,3.244-58.649,6.599-88.084,9.19
							C757.06,2147.555,744.793,2148.487,732.935,2149.23z"/><path fill="#fff" d="M1250.637,2007.893l24.041,354.184l12.327,179.933l-583.847,30.62l-12.118-166.989
								l-24.927-345.156c-8.661-89.595,21.305-340.868,251.242-374.345"/><path fill="#212121" d="M703.151,2578.82c-3.224,0.001-5.934-2.49-6.17-5.742l-12.118-166.989l-24.921-345.083
								c-4.75-49.285,2.004-134.155,36.669-211.276c19.817-44.089,46.484-80.526,79.261-108.298
								c38.721-32.81,86.021-53.474,140.59-61.418c3.376-0.496,6.525,1.85,7.018,5.234c0.493,3.384-1.851,6.525-5.234,7.018
								c-226.603,32.991-254.178,282.736-245.972,367.624c0.005,0.05,0.009,0.1,0.013,0.15l24.927,345.155l11.679,160.936
								l571.506-29.973l-11.896-173.658l-24.041-354.188c-0.231-3.411,2.347-6.364,5.758-6.596c3.419-0.225,6.364,2.346,6.596,5.758
								l24.041,354.184l12.326,179.93c0.113,1.655-0.442,3.286-1.543,4.528c-1.101,1.241-2.652,1.99-4.31,2.077l-583.848,30.62
								C703.37,2578.818,703.261,2578.82,703.151,2578.82z"/><polygon fill="#fff" points="1274.677 2362.077 1287.004 2542.01 703.156 2572.63 691.038 2405.641"/><path fill="#212121" d="M703.151,2578.82c-3.224,0-5.934-2.49-6.17-5.742l-12.118-166.989
								c-0.247-3.405,2.31-6.367,5.714-6.622l583.64-43.564c1.649-0.113,3.27,0.416,4.515,1.495c1.246,1.079,2.01,2.611,2.122,4.256
								l12.326,179.934c0.114,1.655-0.441,3.286-1.542,4.528c-1.101,1.241-2.652,1.99-4.31,2.077l-583.848,30.62
								C703.37,2578.817,703.26,2578.82,703.151,2578.82z M697.66,2411.354l11.231,154.775l571.506-29.973l-11.471-167.444
								L697.66,2411.354z"/><g><path fill="#fff" d="M769.461,2921.723c-2.633,160.792,70.854,244.571,213.625,280.315
							c0,0,518.322,146.964,922.389,210.308c0,0,210.038,4.01,334.588-151.394c124.55-155.403-53.265-330.942-163.171-347.863
							c-229.695-50.699-699.388-140.843-894.124-173.261"/><path fill="#212121" d="M1907.287,3418.55c-1.072,0-1.724-0.011-1.931-0.015c-0.281-0.005-0.562-0.03-0.841-0.073
							c-398.152-62.418-913.634-207.784-923.028-210.442c-151.462-37.946-220.794-128.952-218.216-286.398
							c0.055-3.384,2.815-6.089,6.188-6.089c0.034,0,0.068,0,0.104,0.001c3.418,0.056,6.145,2.872,6.089,6.291
							c-2.469,150.771,63.922,237.902,208.938,274.208c0.062,0.016,0.123,0.032,0.185,0.05
							c5.178,1.468,522.213,147.479,921.217,210.078c4.95,0.034,55.38-0.09,118.828-17.312
							c61.106-16.587,147.213-52.911,210.413-131.768c53.756-67.071,45.055-132.492,28.29-175.562
							c-15.378-39.508-44.529-78.363-82.082-109.409c-34.63-28.63-73.079-47.911-105.489-52.901
							c-0.131-0.02-0.262-0.044-0.392-0.073c-231.729-51.147-699.979-140.933-893.807-173.199c-3.372-0.562-5.651-3.75-5.09-7.123
							s3.747-5.653,7.123-5.09c193.908,32.279,662.285,122.088,894.25,173.279c34.511,5.368,75.062,25.611,111.294,55.564
							c39.152,32.369,69.599,73.019,85.73,114.461c17.947,46.108,27.282,116.118-30.166,187.798
							c-28.893,36.049-64.744,66.566-106.56,90.705c-33.382,19.27-70.61,34.535-110.654,45.371
							C1965.987,3417.596,1917.531,3418.55,1907.287,3418.55z"/><path fill="#fff" d="M1834.24,3382.629c91.931,69.987,171.878-9.637,257.817,62.082
								c37.911,31.638,70.238,78.118,94.531,120.189c33.161,57.429,102.13,83.523,165.334,63.446
								c90.166-28.642,215.8-70.267,314.403-109.529c70.162-27.937,107.434-105.742,82.703-177.097
								c-59.409-171.402-234.371-428.632-620.996-428.632c-20.033,0-40.553,1.885-61.173,5.471"/><path fill="#212121" d="M2308.761,3641.203c-18.028,0.001-36.026-3.253-52.981-9.732
								c-31.36-11.984-57.837-34.527-74.553-63.476c-30.174-52.257-61.509-92.137-93.136-118.531
								c-41.31-34.474-80.979-32.413-122.971-30.23c-42.81,2.221-87.076,4.524-134.63-31.679c-2.721-2.071-3.247-5.955-1.176-8.676
								c2.07-2.72,5.955-3.247,8.676-1.176c43.943,33.453,84.037,31.372,126.487,29.165c42.53-2.209,86.511-4.495,131.547,33.09
								c32.747,27.33,65.021,68.324,95.925,121.846c31.345,54.283,97.836,79.788,158.099,60.642
								c88.632-28.155,215.052-69.986,313.987-109.38c67.915-27.043,102.679-101.416,79.143-169.318
								c-34.513-99.575-180.872-424.468-615.146-424.468c-19.357,0-39.582,1.811-60.112,5.38c-3.372,0.577-6.574-1.671-7.16-5.039
								c-0.585-3.369,1.671-6.574,5.039-7.16c21.229-3.69,42.167-5.562,62.233-5.562c91.69,0,177.132,14.555,253.951,43.262
								c67.528,25.234,129.198,61.665,183.295,108.278c114.279,98.473,167.843,218.482,189.6,281.254
								c12.449,35.918,10.313,74.804-6.015,109.494c-16.222,34.465-44.721,61.236-80.247,75.383
								c-99.274,39.528-225.995,81.46-314.819,109.677C2339.179,3638.89,2323.958,3641.203,2308.761,3641.203z"/><path fill="#fff" d="M2749.028,3341.72c-59.409-171.402-234.371-428.632-620.996-428.632
								c-42.395,0-86.966,8.444-130.063,23.571"/><path fill="#212121" d="M2749.027,3347.912c-2.564,0-4.962-1.605-5.85-4.165
								c-34.513-99.575-180.872-424.468-615.146-424.468c-40.467,0-84.732,8.03-128.012,23.222c-3.229,1.13-6.759-0.565-7.893-3.791
								c-1.132-3.227,0.565-6.76,3.792-7.893c44.582-15.648,90.266-23.919,132.112-23.919c91.689,0,177.132,14.555,253.951,43.262
								c67.528,25.234,129.198,61.665,183.295,108.278c114.279,98.474,167.843,218.482,189.6,281.254
								c1.119,3.23-0.592,6.757-3.822,7.877C2750.384,3347.802,2749.699,3347.912,2749.027,3347.912z"/><path fill="#fff" d="M2418.274,3570.157c0,0-14.438-210.484-200.972-324.185"/><path fill="#212121" d="M2418.269,3576.349c-3.227,0-5.946-2.501-6.17-5.768
									c-0.048-0.677-3.958-52.849-30.269-117.977c-24.229-59.975-72.999-143.592-167.75-201.347
									c-2.92-1.779-3.844-5.589-2.064-8.508c1.778-2.921,5.589-3.846,8.508-2.064c43.197,26.33,80.803,60.017,111.774,100.124
									c24.752,32.054,45.337,68.249,61.183,107.579c26.983,66.975,30.82,119.156,30.97,121.345c0.234,3.411-2.341,6.366-5.752,6.6
									C2418.554,3576.344,2418.41,3576.349,2418.269,3576.349z"/><path fill="#fff" d="M2617.222,3491.344c0,0-12.196-194.63-182.769-321.319"/><path fill="#212121" d="M2617.216,3497.536c-3.242,0-5.967-2.523-6.173-5.805
									c-0.042-0.643-3.374-48.917-27.191-111.772c-21.955-57.939-66.336-140.529-153.09-204.964
									c-2.744-2.038-3.317-5.916-1.278-8.661c2.038-2.745,5.916-3.317,8.661-1.278c39.444,29.297,73.73,64.651,101.906,105.083
									c22.525,32.324,41.213,67.943,55.543,105.866c24.419,64.622,27.68,112.928,27.807,114.953
									c0.214,3.412-2.379,6.352-5.792,6.565C2617.478,3497.531,2617.346,3497.536,2617.216,3497.536z"/></g></g><g><path fill="#fff" d="M2608.578,3528.791h1664.799c9.165,0,17.059-6.462,18.869-15.446l196.984-977.786
					c10.798-53.601-30.185-103.664-84.863-103.664H2876.913c-41.219,0-76.722,29.064-84.863,69.471L2589.71,3505.742
					C2587.309,3517.66,2596.421,3528.791,2608.578,3528.791z"/><path fill="#212121" d="M4273.378,3534.981h-1664.8c-7.658,0-14.833-3.398-19.685-9.324
					c-4.851-5.926-6.765-13.631-5.252-21.138l202.341-1004.376c8.689-43.133,46.932-74.439,90.931-74.439h1527.454
					c27.925,0,54.086,12.393,71.775,34.001c17.688,21.608,24.671,49.701,19.155,77.076l-196.982,977.786
					C4295.931,3526.396,4285.443,3534.981,4273.378,3534.981z M2876.913,2438.085c-38.126,0-71.264,27.128-78.794,64.504
					l-202.341,1004.376c-0.776,3.854,0.207,7.808,2.696,10.85c2.49,3.041,6.173,4.786,10.104,4.786h1664.8
					c6.193,0,11.576-4.407,12.8-10.479l196.983-977.786c4.778-23.721-1.271-48.064-16.6-66.788
					c-15.327-18.724-37.996-29.463-62.194-29.463H2876.913z"/><path fill="#fff" d="M2674.671,3528.791H4339.47c9.165,0,17.059-6.462,18.869-15.446l196.984-977.786
					c10.798-53.601-30.185-103.664-84.863-103.664H2943.006c-41.22,0-76.722,29.064-84.863,69.471l-202.341,1004.376
					C2653.402,3517.66,2662.514,3528.791,2674.671,3528.791z"/><path fill="#212121" d="M4339.471,3534.981h-1664.8c-7.658,0-14.833-3.398-19.685-9.324
					c-4.851-5.926-6.765-13.631-5.252-21.138l202.341-1004.376c8.689-43.133,46.932-74.439,90.931-74.439H4470.46
					c27.925,0,54.086,12.393,71.775,34.001c17.688,21.608,24.671,49.701,19.155,77.076l-196.982,977.786
					C4362.025,3526.396,4351.538,3534.981,4339.471,3534.981z M2943.006,2438.085c-38.126,0-71.264,27.128-78.794,64.504
					l-202.341,1004.376c-0.776,3.854,0.207,7.808,2.696,10.85c2.49,3.041,6.173,4.786,10.104,4.786h1664.8
					c6.193,0,11.576-4.407,12.799-10.479l196.984-977.786c4.778-23.721-1.271-48.064-16.6-66.788
					c-15.327-18.724-37.996-29.463-62.194-29.463H2943.006z"/><path fill="#fff" d="M2158.1,3657.134h2177.853c10.63,0,19.248-8.617,19.248-19.248v-89.847
					c0-10.63-8.617-19.248-19.248-19.248H2158.1c-10.63,0-19.248,8.617-19.248,19.248v89.847
					C2138.853,3648.516,2147.47,3657.134,2158.1,3657.134z"/><path fill="#212121" d="M4335.953,3663.324H2158.1c-14.026,0-25.438-11.412-25.438-25.438v-89.848
					c0-14.026,11.411-25.438,25.438-25.438h2177.854c14.026,0,25.438,11.411,25.438,25.438v89.848
					C4361.391,3651.912,4349.979,3663.324,4335.953,3663.324z M2158.1,3534.981c-7.199,0-13.057,5.857-13.057,13.057v89.848
					c0,7.2,5.857,13.058,13.057,13.058h2177.854c7.199,0,13.057-5.857,13.057-13.058v-89.848c0-7.199-5.857-13.057-13.057-13.057
					H2158.1z"/><g><circle cx="3606.237" cy="2980.343" r="118.648" fill="#212121"/></g></g></svg>